<svg width="771" height="300" viewBox="0 0 771 300" fill="none" xmlns="http://www.w3.org/2000/svg">
<path d="M302.792 244.412C293.509 244.412 286.115 240.872 280.608 233.792C280.136 233.32 279.9 232.769 279.9 232.14C279.9 230.724 280.844 229.78 282.732 229.308C282.889 229.308 282.968 229.308 282.968 229.308C283.283 229.151 283.44 229.072 283.44 229.072C283.597 229.072 283.44 229.151 282.968 229.308C283.44 229.151 283.912 229.072 284.384 229.072L282.968 229.308H282.732C282.26 229.465 282.024 229.78 282.024 230.252C282.024 231.353 283.991 232.927 287.924 234.972C292.015 237.175 297.285 238.276 303.736 238.276C309.557 238.276 315.929 236.86 322.852 234.028C329.932 231.196 337.091 226.004 344.328 218.452C351.723 210.9 358.803 200.359 365.568 186.828C372.333 173.14 378.312 155.597 383.504 134.2C388.853 112.645 392.865 86.4493 395.54 55.612C382.167 57.3427 368.793 60.096 355.42 63.872C342.047 67.4907 329.932 72.132 319.076 77.796C308.22 83.3027 299.488 89.596 292.88 96.676C286.272 103.599 282.968 111.229 282.968 119.568C282.968 120.512 282.968 121.456 282.968 122.4C283.125 123.344 283.283 124.288 283.44 125.232C284.227 128.693 285.249 131.761 286.508 134.436C287.924 137.111 289.891 139.235 292.408 140.808C293.824 141.752 294.532 142.617 294.532 143.404C294.532 144.348 293.903 144.82 292.644 144.82C291.543 144.82 290.441 144.505 289.34 143.876C285.564 141.516 282.811 138.527 281.08 134.908C279.507 131.289 278.327 127.671 277.54 124.052C277.068 121.849 276.832 119.725 276.832 117.68C276.832 110.443 278.956 103.756 283.204 97.62C287.609 91.3267 293.273 85.6627 300.196 80.628C307.276 75.436 314.985 70.8733 323.324 66.94C331.82 63.0067 340.159 59.7027 348.34 57.028C356.679 54.3533 364.231 52.3867 370.996 51.128C374.615 50.3413 378.548 49.6333 382.796 49.004C387.044 48.3747 391.528 47.824 396.248 47.352C396.405 45.1493 396.563 42.9467 396.72 40.744C396.877 38.5413 397.035 36.3387 397.192 34.136C397.349 32.248 397.979 30.832 399.08 29.888C400.181 28.944 401.361 28.472 402.62 28.472C403.879 28.472 405.059 28.944 406.16 29.888C407.419 30.832 408.048 32.248 408.048 34.136C408.048 36.1813 407.969 38.2267 407.812 40.272C407.812 42.3173 407.733 44.3627 407.576 46.408C409.936 46.2507 412.296 46.172 414.656 46.172C417.016 46.0147 419.455 45.936 421.972 45.936C430.94 45.936 439.593 46.644 447.932 48.06C456.428 49.3187 463.901 51.5213 470.352 54.668C476.96 57.8147 481.837 62.1413 484.984 67.648C485.613 68.4347 485.928 69.3 485.928 70.244C485.928 71.5027 485.456 72.132 484.512 72.132C483.411 72.132 482.388 71.3453 481.444 69.772C478.14 64.108 471.532 59.9387 461.62 57.264C451.865 54.5893 440.459 53.252 427.4 53.252C424.096 53.252 420.713 53.3307 417.252 53.488C413.948 53.6453 410.565 53.8813 407.104 54.196C405.373 80.3133 401.833 103.599 396.484 124.052C391.292 144.505 384.92 162.284 377.368 177.388C369.816 192.492 361.713 205 353.06 214.912C344.407 224.824 335.675 232.219 326.864 237.096C318.211 241.973 310.187 244.412 302.792 244.412ZM436.02 213.26C430.828 213.26 426.58 211.687 423.276 208.54C420.129 205.393 417.769 201.381 416.196 196.504C414.622 191.469 413.836 186.199 413.836 180.692C413.836 177.388 414.15 174.241 414.78 171.252C415.409 168.263 416.038 165.824 416.668 163.936C416.51 162.835 416.353 161.733 416.196 160.632C416.196 159.373 416.196 158.115 416.196 156.856C416.196 152.293 416.668 147.337 417.612 141.988C418.556 136.639 420.05 131.525 422.096 126.648C424.298 121.771 426.973 117.837 430.12 114.848C433.424 111.701 437.436 110.128 442.156 110.128C446.246 110.128 450.258 111.859 454.192 115.32C458.125 118.624 461.586 123.501 464.576 129.952C466.306 133.571 467.486 137.504 468.116 141.752C468.902 145.843 469.296 150.012 469.296 154.26C469.296 160.081 468.666 165.903 467.408 171.724C466.306 177.388 464.654 182.737 462.452 187.772C460.878 191.391 458.754 195.245 456.08 199.336C453.562 203.269 450.652 206.573 447.348 209.248C444.044 211.923 440.268 213.26 436.02 213.26ZM437.2 208.068C442.549 208.068 447.505 204.371 452.068 196.976C455.372 191.784 457.732 185.884 459.148 179.276C460.564 172.511 461.272 165.745 461.272 158.98C461.272 153.945 460.957 149.068 460.328 144.348C459.698 139.628 458.754 135.065 457.496 130.66C456.394 126.727 454.506 123.265 451.832 120.276C449.314 117.129 445.696 115.792 440.976 116.264C437.2 116.579 433.896 118.467 431.064 121.928C428.232 125.389 426.029 129.323 424.456 133.728C423.04 137.976 422.332 141.673 422.332 144.82C422.332 146.551 422.568 147.888 423.04 148.832C423.512 147.573 424.692 145.528 426.58 142.696C428.468 139.707 430.592 137.032 432.952 134.672C435.312 132.155 437.514 130.896 439.56 130.896C441.29 130.896 442.156 131.604 442.156 133.02C440.11 133.177 438.065 134.436 436.02 136.796C434.132 138.999 432.322 141.673 430.592 144.82C429.018 147.967 427.681 151.113 426.58 154.26C425.636 157.249 424.928 159.609 424.456 161.34C424.298 161.969 424.062 162.756 423.748 163.7C423.433 164.644 423.276 165.588 423.276 166.532C423.276 167.633 423.905 169.443 425.164 171.96C426.422 174.32 428.468 176.523 431.3 178.568C434.132 180.613 437.986 181.636 442.864 181.636C444.28 181.636 445.774 181.479 447.348 181.164C448.921 180.849 450.416 180.535 451.832 180.22L453.484 179.748C453.798 179.748 453.956 179.905 453.956 180.22C453.956 180.692 453.405 181.321 452.304 182.108C451.36 182.737 450.494 183.209 449.708 183.524C447.505 184.625 445.066 185.176 442.392 185.176C438.458 185.176 434.682 183.996 431.064 181.636C427.602 179.119 424.534 176.287 421.86 173.14C421.702 174.399 421.624 175.657 421.624 176.916C421.624 178.017 421.624 179.119 421.624 180.22C421.624 189.345 423.197 196.268 426.344 200.988C429.49 205.708 433.109 208.068 437.2 208.068ZM484.744 216.092C480.968 216.092 478.136 214.44 476.248 211.136C474.36 207.989 473.416 203.977 473.416 199.1C473.416 195.639 474.124 191.312 475.54 186.12C476.956 180.928 478.923 175.5 481.44 169.836C483.958 164.172 486.79 158.901 489.936 154.024C493.083 148.989 496.308 144.977 499.612 141.988C503.074 138.841 506.456 137.268 509.76 137.268C512.435 137.268 514.323 138.291 515.424 140.336C516.683 142.224 517.312 144.269 517.312 146.472C517.312 148.36 516.919 150.091 516.132 151.664C515.503 153.08 514.559 153.788 513.3 153.788C512.042 153.788 511.098 153.237 510.468 152.136C509.996 150.877 509.524 149.619 509.052 148.36C508.738 147.101 507.872 146.472 506.456 146.472C503.624 146.472 500.792 148.281 497.96 151.9C495.128 155.519 492.532 160.081 490.172 165.588C487.812 171.095 485.924 176.837 484.508 182.816C483.092 188.637 482.384 193.829 482.384 198.392C482.384 201.696 482.778 204.292 483.564 206.18C484.508 208.225 486.003 209.248 488.048 209.248C490.723 209.248 493.398 207.596 496.072 204.292C498.904 200.831 501.658 196.425 504.332 191.076C507.007 185.569 509.446 179.827 511.648 173.848C514.008 167.869 515.975 162.284 517.548 157.092C519.279 151.743 520.616 147.495 521.56 144.348C522.819 133.335 524.314 122.243 526.044 111.072C527.932 99.9013 530.686 89.0453 534.304 78.504C534.776 76.7733 535.484 75.2787 536.428 74.02C537.53 72.7613 538.631 72.132 539.732 72.132C540.991 72.132 542.014 72.9973 542.8 74.728C543.744 76.4587 544.216 78.4253 544.216 80.628C544.216 82.3587 543.902 84.168 543.272 86.056C542.643 87.944 541.856 90.4613 540.912 93.608C539.811 97.384 538.395 102.419 536.664 108.712C535.091 114.848 533.439 121.849 531.708 129.716C529.978 137.425 528.483 145.685 527.224 154.496C526.123 163.149 525.572 171.803 525.572 180.456C525.572 187.064 526.044 191.705 526.988 194.38C527.932 197.055 529.191 198.392 530.764 198.392C532.495 198.392 534.383 197.291 536.428 195.088C538.631 192.885 540.755 190.211 542.8 187.064C545.003 183.917 546.97 180.771 548.7 177.624C550.431 174.32 551.768 171.724 552.712 169.836C554.443 166.375 555.78 164.644 556.724 164.644C557.354 164.644 557.668 165.352 557.668 166.768C557.668 167.869 557.432 169.049 556.96 170.308C556.016 172.353 555.387 173.927 555.072 175.028C554.758 175.972 554.364 176.916 553.892 177.86C553.578 178.804 552.791 180.299 551.532 182.344C550.431 184.232 548.7 186.828 546.34 190.132C543.98 193.279 541.306 196.189 538.316 198.864C535.327 201.381 532.338 202.64 529.348 202.64C526.359 202.64 524.078 201.381 522.504 198.864C521.088 196.347 520.144 193.121 519.672 189.188C519.358 185.097 519.2 180.928 519.2 176.68C519.2 171.488 519.436 165.981 519.908 160.16C518.807 163.936 517.312 168.42 515.424 173.612C513.536 178.647 511.412 183.76 509.052 188.952C506.692 194.144 504.175 198.864 501.5 203.112C499.298 206.573 496.859 209.563 494.184 212.08C491.51 214.755 488.363 216.092 484.744 216.092ZM555.498 216.092C551.722 216.092 548.89 214.44 547.002 211.136C545.114 207.989 544.17 203.977 544.17 199.1C544.17 195.639 544.878 191.312 546.294 186.12C547.71 180.928 549.677 175.5 552.194 169.836C554.712 164.172 557.544 158.901 560.69 154.024C563.837 148.989 567.062 144.977 570.366 141.988C573.828 138.841 577.21 137.268 580.514 137.268C583.189 137.268 585.077 138.291 586.178 140.336C587.437 142.224 588.066 144.269 588.066 146.472C588.066 148.36 587.673 150.091 586.886 151.664C586.257 153.08 585.313 153.788 584.054 153.788C582.796 153.788 581.852 153.237 581.222 152.136C580.75 150.877 580.278 149.619 579.806 148.36C579.492 147.101 578.626 146.472 577.21 146.472C574.378 146.472 571.546 148.281 568.714 151.9C565.882 155.519 563.286 160.081 560.926 165.588C558.566 171.095 556.678 176.837 555.262 182.816C553.846 188.637 553.138 193.829 553.138 198.392C553.138 201.696 553.532 204.292 554.318 206.18C555.262 208.225 556.757 209.248 558.802 209.248C561.477 209.248 564.152 207.596 566.826 204.292C569.658 200.831 572.412 196.425 575.086 191.076C577.761 185.569 580.2 179.827 582.402 173.848C584.762 167.869 586.729 162.284 588.302 157.092C590.033 151.743 591.37 147.495 592.314 144.348C593.573 133.335 595.068 122.243 596.798 111.072C598.686 99.9013 601.44 89.0453 605.058 78.504C605.53 76.7733 606.238 75.2787 607.182 74.02C608.284 72.7613 609.385 72.132 610.486 72.132C611.745 72.132 612.768 72.9973 613.554 74.728C614.498 76.4587 614.97 78.4253 614.97 80.628C614.97 82.3587 614.656 84.168 614.026 86.056C613.397 87.944 612.61 90.4613 611.666 93.608C610.565 97.384 609.149 102.419 607.418 108.712C605.845 114.848 604.193 121.849 602.462 129.716C600.732 137.425 599.237 145.685 597.978 154.496C596.877 163.149 596.326 171.803 596.326 180.456C596.326 187.064 596.798 191.705 597.742 194.38C598.686 197.055 599.945 198.392 601.518 198.392C603.249 198.392 605.137 197.291 607.182 195.088C609.385 192.885 611.509 190.211 613.554 187.064C615.757 183.917 617.724 180.771 619.454 177.624C621.185 174.32 622.522 171.724 623.466 169.836C625.197 166.375 626.534 164.644 627.478 164.644C628.108 164.644 628.422 165.352 628.422 166.768C628.422 167.869 628.186 169.049 627.714 170.308C626.77 172.353 626.141 173.927 625.826 175.028C625.512 175.972 625.118 176.916 624.646 177.86C624.332 178.804 623.545 180.299 622.286 182.344C621.185 184.232 619.454 186.828 617.094 190.132C614.734 193.279 612.06 196.189 609.07 198.864C606.081 201.381 603.092 202.64 600.102 202.64C597.113 202.64 594.832 201.381 593.258 198.864C591.842 196.347 590.898 193.121 590.426 189.188C590.112 185.097 589.954 180.928 589.954 176.68C589.954 171.488 590.19 165.981 590.662 160.16C589.561 163.936 588.066 168.42 586.178 173.612C584.29 178.647 582.166 183.76 579.806 188.952C577.446 194.144 574.929 198.864 572.254 203.112C570.052 206.573 567.613 209.563 564.938 212.08C562.264 214.755 559.117 216.092 555.498 216.092ZM654.572 242.524C652.527 242.524 650.56 241.737 648.672 240.164C646.941 238.591 645.447 237.017 644.188 235.444C639.153 229.623 634.905 221.913 631.444 212.316C628.14 202.719 625.623 192.177 623.892 180.692C622.161 169.049 621.296 157.249 621.296 145.292C621.296 134.121 622.004 123.265 623.42 112.724C624.993 102.183 627.353 92.5853 630.5 83.932C633.647 75.2787 637.58 68.356 642.3 63.164C648.436 56.2413 654.336 52.78 660 52.78C663.461 52.78 666.215 54.3533 668.26 57.5C670.463 60.4893 671.564 65.288 671.564 71.896C671.564 78.1893 670.305 86.2133 667.788 95.968C665.428 105.565 661.337 117.051 655.516 130.424C653.471 134.829 651.268 139.235 648.908 143.64C646.705 148.045 644.345 152.687 641.828 157.564C640.884 159.452 640.097 160.396 639.468 160.396C639.153 160.396 638.996 160.081 638.996 159.452C638.996 158.193 639.547 156.541 640.648 154.496C654.965 127.592 662.124 100.845 662.124 74.256C662.124 63.7147 659.921 58.444 655.516 58.444C652.369 58.444 648.672 61.512 644.424 67.648C638.603 76.3013 634.591 86.6067 632.388 98.564C630.185 110.364 629.084 122.321 629.084 134.436C629.084 143.561 629.477 152.451 630.264 161.104C631.051 169.6 631.995 177.309 633.096 184.232C633.568 187.221 634.276 191.233 635.22 196.268C636.164 201.303 637.423 206.573 638.996 212.08C640.569 217.744 642.3 222.857 644.188 227.42C646.233 232.14 648.436 235.523 650.796 237.568C651.425 238.04 652.055 238.512 652.684 238.984C653.471 239.613 654.336 240.007 655.28 240.164C656.696 240.164 657.404 240.557 657.404 241.344C657.404 242.131 656.46 242.524 654.572 242.524ZM679.109 208.068C673.445 208.068 668.489 204.764 664.241 198.156C660.15 191.391 658.105 180.771 658.105 166.296C658.105 156.856 659.285 149.304 661.645 143.64C664.005 137.819 666.915 133.571 670.377 130.896C673.838 128.221 677.142 126.884 680.289 126.884C683.435 126.884 686.11 127.985 688.313 130.188C690.515 132.233 691.617 135.223 691.617 139.156C691.617 142.932 690.515 146.944 688.313 151.192C686.11 155.283 683.435 159.059 680.289 162.52C677.299 165.824 674.31 168.027 671.321 169.128C670.691 169.443 669.905 169.6 668.961 169.6C668.331 169.6 668.017 169.364 668.017 168.892C668.017 167.633 669.275 166.217 671.793 164.644C674.939 162.441 677.929 159.137 680.761 154.732C683.593 150.169 685.009 146.157 685.009 142.696C685.009 140.651 684.537 139.077 683.593 137.976C682.649 136.717 681.547 136.088 680.289 136.088C677.929 136.088 675.333 137.976 672.501 141.752C669.826 145.371 667.859 151.664 666.601 160.632C666.286 163.149 665.971 165.588 665.657 167.948C665.499 170.151 665.421 172.353 665.421 174.556C665.421 183.367 666.758 190.289 669.433 195.324C672.107 200.201 675.647 202.64 680.053 202.64C683.829 202.64 688.077 200.437 692.797 196.032C697.517 191.469 702.158 184.389 706.721 174.792C707.822 172.275 709.081 171.016 710.497 171.016C711.441 171.016 711.913 171.645 711.913 172.904C711.913 174.005 711.598 175.185 710.969 176.444C706.878 186.513 701.922 194.301 696.101 199.808C690.279 205.315 684.615 208.068 679.109 208.068ZM736.278 216.8C731.243 216.8 727.389 214.44 724.714 209.72C722.039 205.157 720.702 200.123 720.702 194.616C720.702 189.424 721.567 183.996 723.298 178.332C725.029 172.668 727.153 167.083 729.67 161.576C732.345 156.069 735.098 151.035 737.93 146.472C735.098 147.573 732.423 148.124 729.906 148.124C728.647 148.124 727.546 147.967 726.602 147.652C725.658 147.337 724.871 147.101 724.242 146.944C723.455 148.832 722.039 151.979 719.994 156.384C718.106 160.789 716.061 165.431 713.858 170.308C711.813 175.028 710.003 179.04 708.43 182.344C705.913 187.693 703.71 190.368 701.822 190.368C700.878 190.368 700.406 189.739 700.406 188.48C700.406 187.536 700.799 186.277 701.586 184.704C705.205 177.939 708.587 171.252 711.734 164.644C715.038 158.036 718.027 151.664 720.702 145.528C720.387 144.741 720.073 143.719 719.758 142.46C719.443 141.044 719.286 139.549 719.286 137.976C719.286 136.245 719.443 134.436 719.758 132.548C720.23 130.503 720.859 128.536 721.646 126.648C722.118 125.547 722.983 123.973 724.242 121.928C725.501 119.725 726.917 117.759 728.49 116.028C730.063 114.14 731.558 113.196 732.974 113.196C735.649 113.196 736.986 114.612 736.986 117.444C736.986 120.119 736.121 123.187 734.39 126.648C732.817 130.109 731.165 133.335 729.434 136.324C727.703 139.156 726.838 141.28 726.838 142.696C726.838 143.955 727.467 144.584 728.726 144.584C730.457 144.584 732.581 143.719 735.098 141.988C737.773 140.1 739.897 138.369 741.47 136.796C742.257 136.009 743.515 134.829 745.246 133.256C746.977 131.525 748.629 130.66 750.202 130.66C751.775 130.66 752.798 131.132 753.27 132.076C753.899 133.02 754.214 134.121 754.214 135.38C754.214 136.796 753.585 138.605 752.326 140.808C751.067 142.853 749.573 144.899 747.842 146.944C746.269 148.989 744.931 150.72 743.83 152.136C741.627 155.44 739.11 159.609 736.278 164.644C733.446 169.679 731.007 175.107 728.962 180.928C726.917 186.592 725.894 192.02 725.894 197.212C725.894 200.673 726.759 204.292 728.49 208.068C730.221 211.844 732.581 213.732 735.57 213.732C738.245 213.732 741.077 212.316 744.066 209.484C747.213 206.652 750.123 203.269 752.798 199.336C755.63 195.403 758.069 191.627 760.114 188.008C762.317 184.389 763.811 181.872 764.598 180.456C764.913 179.669 765.463 178.725 766.25 177.624C767.037 176.365 767.981 175.736 769.082 175.736C770.026 175.736 770.498 176.208 770.498 177.152C770.498 177.939 770.262 178.883 769.79 179.984C769.475 180.928 769.161 181.793 768.846 182.58C767.43 185.884 765.699 189.345 763.654 192.964C761.609 196.583 760.193 199.021 759.406 200.28C757.203 203.899 753.899 207.517 749.494 211.136C745.246 214.912 740.841 216.8 736.278 216.8Z" fill="white"/>
<circle cx="50" cy="85" r="50" fill="#C8A2D6"/>
<circle cx="50" cy="200" r="50" fill="#575757"/>
<circle cx="165" cy="85" r="50" fill="#575757"/>
<circle cx="165" cy="200" r="50" fill="#575757"/>
</svg>
